<svg xmlns="http://www.w3.org/2000/svg" viewBox="0 0 50 50"><title>codepen</title><g id="Layer_2" data-name="Layer 2"><g id="Layer_2-2" data-name="Layer 2"><path d="M50,24.6A25,25,0,1,1,24.56,0,25,25,0,0,1,50,24.6ZM40.46,25c0-1.5,0-3,0-4.5a1.65,1.65,0,0,0-.8-1.49Q32.8,14.5,26,9.91a1.39,1.39,0,0,0-1.91,0Q17.2,14.48,10.35,19a1.7,1.7,0,0,0-.82,1.56c0,2.95,0,5.91,0,8.86A1.68,1.68,0,0,0,10.35,31L24.07,40.1a1.4,1.4,0,0,0,1.88,0L39.66,31a1.66,1.66,0,0,0,.81-1.53C40.45,28,40.46,26.49,40.46,25Z"/><path d="M17.91,23.4l-4.65-3.11,10.38-6.91c0,.21,0,.35,0,.49,0,1.76,0,3.52,0,5.28a.67.67,0,0,1-.34.64Z"/><path d="M26.4,13.4l10.34,6.89L32.09,23.4c-1.87-1.25-3.72-2.48-5.56-3.73a.47.47,0,0,1-.19-.34c0-1.92,0-3.84,0-5.76A.88.88,0,0,1,26.4,13.4Z"/><path d="M23.62,36.61l-10.36-6.9,1.3-.87c1-.68,2-1.35,3-2a.45.45,0,0,1,.61,0c1.71,1.16,3.45,2.31,5.17,3.48a.63.63,0,0,1,.27.43c0,1.9,0,3.81,0,5.71C23.66,36.45,23.64,36.49,23.62,36.61Z"/><path d="M36.74,29.71,26.37,36.62c0-.18,0-.3,0-.42,0-1.79,0-3.58,0-5.37a.62.62,0,0,1,.32-.6L31.8,26.8a.54.54,0,0,1,.45-.08C33.73,27.69,35.2,28.68,36.74,29.71Z"/><path d="M20.3,25c1.54-1,3-2,4.53-3a.4.4,0,0,1,.34,0c1.5,1,3,2,4.53,3-1.54,1-3,2-4.53,3a.4.4,0,0,1-.34,0C23.33,27,21.83,26,20.3,25Z"/><path d="M15.52,25l-3.28,2.19V22.81Z"/><path d="M37.77,22.8v4.4L34.48,25Z"/></g></g></svg>