<svg xmlns="http://www.w3.org/2000/svg" viewBox="0 0 51.25 50"><title>github</title><g id="Layer_2" data-name="Layer 2"><g id="Layer_2-2" data-name="Layer 2"><path d="M47.82,12.76a25.58,25.58,0,0,0-9.33-9.32A25.08,25.08,0,0,0,25.63,0,25.12,25.12,0,0,0,12.76,3.44a25.55,25.55,0,0,0-9.32,9.32A25.12,25.12,0,0,0,0,25.63,24.89,24.89,0,0,0,4.89,40.69,25.09,25.09,0,0,0,17.52,50a1.51,1.51,0,0,0,1.33-.23,1.31,1.31,0,0,0,.44-1c0-.07,0-.67,0-1.8s0-2.13,0-3l-.76.13a9.86,9.86,0,0,1-1.86.12A13.64,13.64,0,0,1,14.31,44a5.15,5.15,0,0,1-2.23-1,4.24,4.24,0,0,1-1.47-2.05l-.33-.77a9.06,9.06,0,0,0-1-1.7,4.07,4.07,0,0,0-1.46-1.27L7.54,37a2.76,2.76,0,0,1-.43-.41,1.51,1.51,0,0,1-.3-.46c-.07-.16,0-.29.16-.39a2.18,2.18,0,0,1,1-.15l.67.1a5.06,5.06,0,0,1,1.65.8,5.41,5.41,0,0,1,1.62,1.74,5.82,5.82,0,0,0,1.85,2.08,3.91,3.91,0,0,0,2.19.72,9.63,9.63,0,0,0,1.9-.16,6.8,6.8,0,0,0,1.5-.51A5.38,5.38,0,0,1,21,36.94a25.15,25.15,0,0,1-3.42-.6A13.42,13.42,0,0,1,14.4,35a8.94,8.94,0,0,1-2.69-2.23A10.9,10.9,0,0,1,10,29.3a16.59,16.59,0,0,1-.68-5,9.71,9.71,0,0,1,2.63-6.87,9,9,0,0,1,.24-6.81,4.69,4.69,0,0,1,2.87.45,19.69,19.69,0,0,1,2.78,1.29c.59.35,1.06.65,1.42.9a24,24,0,0,1,12.81,0l1.27-.8A17.23,17.23,0,0,1,36.37,11a4.34,4.34,0,0,1,2.7-.37,8.87,8.87,0,0,1,.27,6.81A9.72,9.72,0,0,1,42,24.29a16.65,16.65,0,0,1-.69,5,10.29,10.29,0,0,1-1.76,3.51A9.58,9.58,0,0,1,36.82,35a13.81,13.81,0,0,1-3.13,1.3,25.15,25.15,0,0,1-3.42.6A6,6,0,0,1,32,41.68v7a1.33,1.33,0,0,0,.42,1,1.47,1.47,0,0,0,1.32.23,25.09,25.09,0,0,0,12.63-9.26,25,25,0,0,0,4.88-15.07A25.1,25.1,0,0,0,47.82,12.76Z"/></g></g></svg>