<svg xmlns="http://www.w3.org/2000/svg" viewBox="0 0 50.01 50"><title>linkedin</title><g id="Layer_2" data-name="Layer 2"><g id="Layer_2-2" data-name="Layer 2"><path d="M25,50A25,25,0,1,1,50,25.45,25,25,0,0,1,25,50Zm13.82-13c0-.12,0-.2,0-.28,0-3.86,0-7.72,0-11.58a6.83,6.83,0,0,0-1.29-4c-2.29-3.09-7.43-3.11-10-.05l-.39.48-.13-.06V19.41H21.89V37.05H27.1v-.69c0-2.91,0-5.82,0-8.73a6.12,6.12,0,0,1,.44-2.11,2.93,2.93,0,0,1,3.23-1.71,2.62,2.62,0,0,1,2.48,2.27,9.49,9.49,0,0,1,.18,1.68q0,4.27,0,8.55v.74Zm-20.55,0V19.42H12.89V37.05Zm.52-23.28A3.23,3.23,0,1,0,15.57,17,3.29,3.29,0,0,0,18.8,13.77Z"/></g></g></svg>