<svg xmlns="http://www.w3.org/2000/svg" viewBox="0 0 699.43 295.46"><defs><style>.cls-1,.cls-2{fill:#1c1c1c;}.cls-1{opacity:0.21;}</style></defs><title>logo</title><g id="Layer_2" data-name="Layer 2"><g id="Layer_1-2" data-name="Layer 1"><path class="cls-1" d="M13.78,97.7,70.15,69.05l.16-1.25L23.49,39l2.66-15.35L86.9,61.22l-2.66,16L11,114.93ZM148.85,8H178a41.85,41.85,0,0,1,15.5,2.66,30.48,30.48,0,0,1,11.27,7.51,32,32,0,0,1,6.89,11.75A47.17,47.17,0,0,1,214,45.25q0,35.7-13.46,53.86T163.1,117.27H130.53Zm15,95q12.21,0,19.26-7.52,7.2-7.67,9.7-22.55l2.82-17.06q.48-2.82.79-6.11c.2-2.19.31-4.23.31-6.11q0-21.45-20.67-21.45H163.56L150.1,103Zm138,14.24,3.13-19.1h-.63a48.59,48.59,0,0,1-11,15.19q-6.42,5.79-16.91,5.79-12.53,0-18.63-8.14t-6-23.17a86,86,0,0,1,2.19-19.26,58,58,0,0,1,7-17.07A39.73,39.73,0,0,1,273,39.3a30.27,30.27,0,0,1,16.91-4.7q9.24,0,14.72,4.23T312.25,51H313l2.35-14.56h16.75l-13.46,80.79Zm-18.64-11.74q9.24,0,16.6-8.45a38.38,38.38,0,0,0,5-7.36,32.45,32.45,0,0,0,3.29-10l2.66-16.13q1.25-7.05-3.13-11.12-4.23-4.23-12.68-4.23-10.5,0-16.29,6.42-5.64,6.27-7.36,16.13L269.5,81.89a27.3,27.3,0,0,0-.47,3.29c-.1,1.14-.15,2.29-.15,3.44q0,7.68,3.44,12.37T283.28,105.53ZM407.7,36.48l-10.49,68.89,2,1.26a40.81,40.81,0,0,0,15.19-6.42A41.9,41.9,0,0,0,425.08,89.4a45.8,45.8,0,0,0,6.26-13.77,54.07,54.07,0,0,0,2.19-15.19,42.71,42.71,0,0,0-4.85-20.2L444,35.07a36.57,36.57,0,0,1,4.7,11.28A51.1,51.1,0,0,1,450.44,60a60.27,60.27,0,0,1-16.28,41.65,56.57,56.57,0,0,1-17.07,12.68,47.41,47.41,0,0,1-20.35,4.54q-7.83,0-11.59-3.91t-3.76-10.81c0-1.15.06-2.29.16-3.44s.26-2.46.47-3.92l7.2-46.66H373.41l2.19-13.62Zm131-14.87c-4,0-6.73-.73-8.3-2.19A7.55,7.55,0,0,1,528,13.94a17.09,17.09,0,0,1,.16-2.2c.11-.83.26-1.72.47-2.66a11.12,11.12,0,0,1,3.44-6.57C534,.84,536.92,0,540.88,0s6.74.78,8.3,2.35a7,7,0,0,1,2.35,5.32,16.83,16.83,0,0,1-.16,2.19,26.91,26.91,0,0,1-.47,2.67,11.49,11.49,0,0,1-3.6,6.73C545.53,20.82,542.66,21.61,538.69,21.61Zm-9.08,97.54q-7.51,0-11.27-3.91a14.07,14.07,0,0,1-3.76-10.18,26.56,26.56,0,0,1,.31-4.07c.21-1.36.47-3,.78-4.85l8.93-46H497.35l2.2-13.62h44.31l-13.16,67.8,3.14,1.25,27.08-24.89,9.55,8.61-12.21,12.21q-4.85,4.86-8.77,8.3a83.3,83.3,0,0,1-7.2,5.48,26.56,26.56,0,0,1-6.42,3A20.54,20.54,0,0,1,529.61,119.15Zm136.94-21h-.63a48.43,48.43,0,0,1-11,15.19q-6.4,5.79-16.91,5.79-12.52,0-18.63-8.14-5.94-8.15-5.95-23.17a86,86,0,0,1,2.2-19.26,58,58,0,0,1,7-17.07A39.76,39.76,0,0,1,634.46,39.3a30.24,30.24,0,0,1,16.9-4.7q9.24,0,14.72,4.23T673.75,51h.79l8.14-49.63h16.75L680.17,117.27H663.42Zm-21.76,7.36q9.23,0,16.59-8.45a37.49,37.49,0,0,0,5-7.36,32.19,32.19,0,0,0,3.29-10l2.66-16.13q1.26-7.05-3.13-11.12-4.23-4.23-12.68-4.23-10.5,0-16.29,6.42-5.62,6.27-7.35,16.13L631,81.89a25.43,25.43,0,0,0-.47,3.29c-.1,1.14-.16,2.29-.16,3.44q0,7.68,3.45,12.37C636.13,104,639.77,105.53,644.79,105.53ZM8.3,254.28,18.64,145h15l-6.58,63.1-3,29.75h1.41l23-66.39H66.08l1.41,66.39H68.9l6.42-28.66L90,145h14.71l-26,109.29H55.28L55,190.71H53.55L31.79,254.28Zm142-115.87H167l-9.08,54.18h.78a48.62,48.62,0,0,1,10.65-15.35q6.1-5.64,16-5.63,10.8,0,16.28,6.57,5.64,6.42,5.64,16.76c0,1.87-.11,3.86-.31,5.95a54,54,0,0,1-.94,7l-7.68,46.35H181.57l7.83-47c.21-1.46.42-3,.63-4.54a38.61,38.61,0,0,0,.31-4.54,14.92,14.92,0,0,0-2.82-9.23q-2.66-3.77-8.92-3.76a16.49,16.49,0,0,0-8.46,2.19,27.26,27.26,0,0,0-6.73,6,66.61,66.61,0,0,0-4.54,6.58A31.75,31.75,0,0,0,155,211.06l-7.2,43.22H131ZM277.49,287.47a54.27,54.27,0,0,1-18-2.66A28.1,28.1,0,0,1,247.11,276l10.65-10.65q6.74,8.46,19.89,8.46,10,0,16.12-5.32,6.27-5.32,8.46-19.11l2.66-16.75h-.63A48.39,48.39,0,0,1,293.62,248q-6.11,5.64-16,5.64-10.81,0-16.44-6.42t-5.48-16.91q0-2.82.15-5.79.31-3.14,1.1-7.2l7.2-43.85h16.75L273.58,218c-.21,1.46-.42,3-.63,4.7a33,33,0,0,0-.31,4.38,15.52,15.52,0,0,0,2.66,9.24q2.82,3.76,9.08,3.76a15.66,15.66,0,0,0,8.3-2.19,26.36,26.36,0,0,0,6.89-6,59.6,59.6,0,0,0,4.38-6.58A29.86,29.86,0,0,0,308,214.19l6.73-40.71h16.76l-13.15,78.6q-3.14,18.64-13.78,26.94T277.49,287.47ZM372,254.28l13.47-80.8h16.75l-3.29,19.11h.78a48.62,48.62,0,0,1,10.65-15.35q6.11-5.64,16-5.63,10.8,0,16.29,6.57t5.63,16.76c0,1.87-.1,3.86-.31,5.95a54,54,0,0,1-.94,7l-7.67,46.35H422.57l7.83-47c.21-1.46.42-3,.63-4.54a36.57,36.57,0,0,0,.31-4.54,14.92,14.92,0,0,0-2.82-9.23q-2.65-3.77-8.92-3.76a16.51,16.51,0,0,0-8.46,2.19,27.26,27.26,0,0,0-6.73,6,68.42,68.42,0,0,0-4.54,6.58A31.74,31.74,0,0,0,396,211.06l-7.21,43.22Zm155,1.88a36.87,36.87,0,0,1-14.09-2.51,29.77,29.77,0,0,1-10.34-6.89,31.72,31.72,0,0,1-6.26-10.8,43.93,43.93,0,0,1-2.19-14.25,61.8,61.8,0,0,1,3.28-20.82,46.16,46.16,0,0,1,9.09-15.66,39.74,39.74,0,0,1,13.93-10,42.88,42.88,0,0,1,17.54-3.6,36.91,36.91,0,0,1,14.09,2.5,27.43,27.43,0,0,1,10.18,7A28.69,28.69,0,0,1,568.6,192a43.42,43.42,0,0,1,2.19,14.09,61.9,61.9,0,0,1-3.29,20.83,46.33,46.33,0,0,1-9.24,15.81,40.63,40.63,0,0,1-13.93,10A43.38,43.38,0,0,1,527,256.16ZM528,242.85q9.87,0,15.82-5.95,5.94-6.1,7.67-16.76l1.72-10.33c.21-1.46.37-2.82.47-4.07a20.15,20.15,0,0,0,.31-3.29q0-8.92-4.69-13.15-4.55-4.38-12.53-4.39Q527,184.91,521,191q-6,6-7.67,16.6L511.6,218c-.2,1.46-.42,2.82-.62,4.07s-.16,2.35-.16,3.29q0,8.92,4.54,13.31Q520.06,242.85,528,242.85Zm117.84,13.31q-7.51,0-11.27-4.08T630.85,241a21.32,21.32,0,0,1,.31-3.29q.32-2,.63-4.23l7.67-46.34H617.23l2.19-13.63h15c3,0,5.27-.57,6.73-1.72s2.45-3.39,3-6.42L647.6,145h15.66l-4.7,28.49h32.57l-2.19,13.63H656.21l-8.92,53.54,3.13,1.57,30.69-21.76,8.3,10-14.25,10.64q-5.32,4.08-9.39,6.89a69.69,69.69,0,0,1-7.36,4.7,33.66,33.66,0,0,1-6.42,2.51A20.35,20.35,0,0,1,645.88,256.16Z"/><path class="cls-2" d="M5.48,105.69,61.85,77,62,75.78,15.19,47l2.66-15.34L78.6,69.21l-2.66,16L2.66,122.91ZM140.54,16h29.13a42.06,42.06,0,0,1,15.5,2.66,30.58,30.58,0,0,1,11.27,7.52,32.06,32.06,0,0,1,6.89,11.74,47.24,47.24,0,0,1,2.35,15.35q0,35.69-13.47,53.86t-37.42,18.16H122.22Zm15,95q12.23,0,19.26-7.51Q182,95.82,184.54,81l2.82-17.07q.46-2.82.78-6.1c.21-2.2.31-4.23.31-6.11q0-21.45-20.66-21.45H155.26L141.8,111Zm138,14.25,3.13-19.1h-.62a48.83,48.83,0,0,1-11,15.19q-6.42,5.79-16.91,5.79-12.53,0-18.64-8.14-5.94-8.15-6-23.18a86,86,0,0,1,2.2-19.26,58.07,58.07,0,0,1,7-17.06,39.76,39.76,0,0,1,11.75-12.21,30.17,30.17,0,0,1,16.91-4.7q9.22,0,14.71,4.23T304,59h.78l2.35-14.56h16.75l-13.47,80.79ZM275,113.52q9.24,0,16.6-8.46a38.07,38.07,0,0,0,5-7.36,32.26,32.26,0,0,0,3.28-10l2.67-16.13q1.24-7-3.14-11.11-4.22-4.23-12.68-4.23-10.49,0-16.28,6.42-5.64,6.25-7.36,16.13L261.2,89.87a25.69,25.69,0,0,0-.47,3.29c-.1,1.15-.16,2.3-.16,3.45q0,7.67,3.45,12.37Q267.47,113.51,275,113.52Zm124.41-69L388.9,113.36l2,1.25a40.72,40.72,0,0,0,15.19-6.42,41.66,41.66,0,0,0,10.64-10.8A46,46,0,0,0,423,83.61a54,54,0,0,0,2.19-15.19,42.86,42.86,0,0,0-4.85-20.2l15.34-5.16a36.65,36.65,0,0,1,4.7,11.27A51.62,51.62,0,0,1,442.14,68a60.22,60.22,0,0,1-16.28,41.65,56.4,56.4,0,0,1-17.07,12.68,47.46,47.46,0,0,1-20.36,4.55c-5.21,0-9.08-1.31-11.58-3.92s-3.76-6.21-3.76-10.8c0-1.15.05-2.3.16-3.45s.26-2.45.47-3.91l7.2-46.66H365.11l2.19-13.62Zm131-14.88q-6,0-8.3-2.19a7.5,7.5,0,0,1-2.35-5.48,16.83,16.83,0,0,1,.16-2.19,26.74,26.74,0,0,1,.47-2.66,11.18,11.18,0,0,1,3.44-6.58Q526.63,8,532.58,8t8.3,2.34a7.06,7.06,0,0,1,2.35,5.33,19.1,19.1,0,0,1-.16,2.19c-.11.83-.26,1.72-.47,2.66a11.46,11.46,0,0,1-3.6,6.73Q536.33,29.6,530.39,29.59Zm-9.09,97.55q-7.51,0-11.27-3.92a14.1,14.1,0,0,1-3.76-10.17,26.48,26.48,0,0,1,.32-4.07q.32-2,.78-4.86l8.92-46H489.05l2.19-13.62h44.31L522.4,112.26l3.13,1.26,27.09-24.9,9.55,8.61L550,109.45q-4.86,4.85-8.77,8.29a81.31,81.31,0,0,1-7.2,5.48,27,27,0,0,1-6.42,3A20.6,20.6,0,0,1,521.3,127.14Zm137-21h-.63a48.83,48.83,0,0,1-11,15.19q-6.42,5.79-16.91,5.79-12.53,0-18.63-8.14t-6-23.18a86,86,0,0,1,2.19-19.26,58.36,58.36,0,0,1,7-17.06,39.73,39.73,0,0,1,11.74-12.21,30.19,30.19,0,0,1,16.91-4.7q9.24,0,14.71,4.23T665.45,59h.78l8.14-49.64h16.76L671.87,125.26H655.12Zm-21.77,7.36q9.24,0,16.6-8.46a38.07,38.07,0,0,0,5-7.36,32.53,32.53,0,0,0,3.29-10L664,71.55q1.26-7-3.13-11.11-4.23-4.23-12.68-4.23-10.5,0-16.29,6.42-5.62,6.25-7.35,16.13l-1.88,11.11a24,24,0,0,0-.47,3.29c-.11,1.15-.16,2.3-.16,3.45q0,7.67,3.44,12.37Q629,113.51,636.48,113.52ZM0,262.26,10.33,153h15l-6.58,63.1-3,29.75h1.41l23-66.39H57.78l1.41,66.39h1.4L67,217.17,81.73,153H96.45l-26,109.29H47l-.31-63.57H45.25L23.49,262.26ZM142,146.4h16.76l-9.09,54.17h.79a48.51,48.51,0,0,1,10.64-15.34q6.12-5.64,16-5.64,10.81,0,16.29,6.58,5.64,6.42,5.64,16.75,0,2.82-.32,6a52.63,52.63,0,0,1-.94,7L190,262.26H173.27l7.83-47c.2-1.46.41-3,.62-4.54a36.57,36.57,0,0,0,.31-4.54,15,15,0,0,0-2.81-9.24q-2.67-3.75-8.93-3.76a16.45,16.45,0,0,0-8.45,2.19,27.71,27.71,0,0,0-6.74,5.95,73.23,73.23,0,0,0-4.54,6.58,31.8,31.8,0,0,0-3.91,11.12l-7.2,43.21H122.69ZM269.19,295.46a54,54,0,0,1-18-2.67A28,28,0,0,1,238.81,284l10.65-10.65q6.73,8.46,19.88,8.45,10,0,16.13-5.32,6.27-5.33,8.45-19.1l2.67-16.76H296A48.62,48.62,0,0,1,285.31,256q-6.1,5.64-16,5.64-10.8,0-16.44-6.42-5.47-6.58-5.48-16.91c0-1.88.05-3.81.16-5.8s.57-4.49,1.09-7.2l7.21-43.84h16.75l-7.36,44.47c-.21,1.46-.42,3-.62,4.69a33.25,33.25,0,0,0-.32,4.39,15.63,15.63,0,0,0,2.66,9.24q2.82,3.75,9.09,3.75a15.62,15.62,0,0,0,8.29-2.19,25.86,25.86,0,0,0,6.89-5.95,56.63,56.63,0,0,0,4.39-6.57,30.1,30.1,0,0,0,4.07-11.12l6.73-40.71H323.2l-13.15,78.6Q306.93,278.7,296.27,287,285.64,295.46,269.19,295.46Zm94.51-33.2,13.46-80.79h16.75l-3.28,19.1h.78a48.69,48.69,0,0,1,10.65-15.34q6.1-5.64,16-5.64,10.8,0,16.28,6.58,5.64,6.42,5.64,16.75,0,2.82-.32,6a52.43,52.43,0,0,1-.93,7L431,262.26H414.27l7.83-47c.21-1.46.42-3,.62-4.54a36.72,36.72,0,0,0,.32-4.54,15,15,0,0,0-2.82-9.24q-2.66-3.75-8.93-3.76a16.45,16.45,0,0,0-8.45,2.19,27.49,27.49,0,0,0-6.73,5.95,69.2,69.2,0,0,0-4.54,6.58,31.8,31.8,0,0,0-3.92,11.12l-7.2,43.21Zm154.94,1.88a36.91,36.91,0,0,1-14.09-2.5,30,30,0,0,1-10.33-6.89A31.69,31.69,0,0,1,488,243.94a43.93,43.93,0,0,1-2.19-14.25,61.88,61.88,0,0,1,3.29-20.82,46.15,46.15,0,0,1,9.08-15.66,40,40,0,0,1,13.94-10,42.86,42.86,0,0,1,17.53-3.6,37,37,0,0,1,14.1,2.51,27.29,27.29,0,0,1,10.17,7A28.6,28.6,0,0,1,560.29,200,43.37,43.37,0,0,1,562.48,214a61.88,61.88,0,0,1-3.28,20.82A46.8,46.8,0,0,1,550,250.68a40.8,40.8,0,0,1-13.94,10A43.48,43.48,0,0,1,518.64,264.14Zm1.1-13.31q9.87,0,15.81-6,6-6.1,7.68-16.75L545,217.8c.21-1.47.36-2.82.47-4.08a20,20,0,0,0,.31-3.28q0-8.92-4.7-13.16-4.53-4.38-12.52-4.38-9.87,0-15.82,6.11Q506.75,205,505,215.6l-1.72,10.34c-.21,1.46-.42,2.82-.63,4.07s-.15,2.35-.15,3.29q0,8.92,4.54,13.3Q511.76,250.83,519.74,250.83Zm117.84,13.31q-7.51,0-11.28-4.07T622.54,249a21.34,21.34,0,0,1,.32-3.28q.32-2,.63-4.23l7.67-46.35H608.93l2.19-13.62h15q4.54,0,6.73-1.72c1.46-1.26,2.46-3.39,3-6.42L639.3,153H655l-4.7,28.5h32.57l-2.19,13.62H647.91L639,248.64l3.14,1.57,30.69-21.77,8.3,10-14.25,10.65q-5.33,4.06-9.39,6.89a72.43,72.43,0,0,1-7.36,4.7,34.06,34.06,0,0,1-6.43,2.5A20,20,0,0,1,637.58,264.14Z"/>
</g></g></svg>
